<svg height="512" viewBox="0 0 64 64" width="512" xmlns="http://www.w3.org/2000/svg"><g id="Card_Game-Poker" data-name="Card Game-Poker"><path d="m60.78 21.54-13 35.71a2.007 2.007 0 0 1 -2.56 1.2l-9.47-3.45-2.75-1-.99-.36h-.01l-4.49-1.64-6.73-2.45a1.994 1.994 0 0 1 -1.19-2.56l4.91-13.49 2.57-7.07 4.93-13.53.29-.78.3-.84a1.96 1.96 0 0 1 1.53-1.28h.68a2 2 0 0 1 .35.09l11.85 4.31 2 .73 10.58 3.85a2 2 0 0 1 1.2 2.56z" fill="#3d9ae2"/><path d="m43.22 49.55-6.73 2.45-4.49 1.64-.99.36-12.23 4.45a2.007 2.007 0 0 1 -2.56-1.2l-13-35.71a2 2 0 0 1 1.2-2.56l12.58-4.58 11.85-4.31a2 2 0 0 1 .35-.09h.68a1.96 1.96 0 0 1 1.53 1.28l.59 1.62 4.93 13.53 2.57 7.07 3.69 10.13 1.22 3.36a1.994 1.994 0 0 1 -1.19 2.56z" fill="#78b9eb"/><path d="m43.98 52-5.49 2-2.74 1-2.75-1-.99-.36 4.48-1.64z" fill="#1e81ce"/><path d="m49 15.13v36.87a2.006 2.006 0 0 1 -2 2h-14l-5.49-2h17.49a2.006 2.006 0 0 0 2-2v-35.6z" fill="#1e81ce"/><path d="m36.49 52-4.49 1.64-.99.36h-10.01a2.006 2.006 0 0 1 -2-2z" fill="#5aaae7"/><rect fill="#e6e7e8" height="42" rx="2" width="30" x="17" y="10"/><path d="m39.3 28.57-2.37-2.14-4.93-4.43-4.93 4.43-2.37 2.14a3.439 3.439 0 0 0 -.2 4.93l.07.07a3.44 3.44 0 0 0 4.86 0l1.57-1.57-2 8h6l-2-8 1.57 1.57a3.44 3.44 0 0 0 4.86 0l.07-.07a3.439 3.439 0 0 0 -.2-4.93z" fill="#ff5023"/><path d="m26.105 20.447 1.79-.894-3-6a1.042 1.042 0 0 0 -1.79 0l-3 6 1.79.894.723-1.447h2.764zm-2.487-3.447.382-.764.382.764z" fill="#acabb1"/><path d="m14.669 26.366 1.375-1.452-4.871-4.614a1 1 0 0 0 -1.681.612l-.766 6.664 1.986.228.188-1.604 2.6-.945zm-3.517-2.388.1-.849.62.588z" fill="#1e81ce"/><path d="m53.288 27.806 1.986-.228-.766-6.664a1 1 0 0 0 -1.681-.612l-4.871 4.612 1.375 1.452 1.175-1.112 2.6.945zm-1.158-4.089.62-.588.1.849z" fill="#1a6fb0"/><path d="m43.105 41.553-.723 1.447h-2.764l-.718-1.447-1.79.894 3 6a1 1 0 0 0 1.79 0l3-6zm-2.487 3.447h.764l-.382.764z" fill="#acabb1"/></g></svg>